HIERARCHY
ROOT Hips
{
	OFFSET -0.09297 91.81560 -12.71420
	CHANNELS 6 Xposition Yposition Zposition Zrotation Xrotation Yrotation
	JOINT Spine
	{
		OFFSET 0.00000 14.09320 -1.51142
		CHANNELS 3 Zrotation Xrotation Yrotation
		JOINT Spine1
		{
			OFFSET 0.00000 8.69660 0.00000
			CHANNELS 3 Zrotation Xrotation Yrotation
			JOINT Spine2
			{
				OFFSET 0.00000 8.69660 0.00000
				CHANNELS 3 Zrotation Xrotation Yrotation
				JOINT Spine3
				{
					OFFSET 0.00000 8.69660 0.00000
					CHANNELS 3 Zrotation Xrotation Yrotation
					JOINT Neck
					{
						OFFSET 0.00000 11.18130 1.11813
						CHANNELS 3 Zrotation Xrotation Yrotation
						JOINT Neck1
						{
							OFFSET 0.00000 5.70631 0.00000
							CHANNELS 3 Zrotation Xrotation Yrotation
							JOINT Head
							{
								OFFSET 0.00000 5.70631 0.00000
								CHANNELS 3 Zrotation Xrotation Yrotation
								End site
								{
									OFFSET 0.00000 9.71257 0.00000
								}
							}
						}
					}
					JOINT RightShoulder
					{
						OFFSET 0.00000 7.98668 5.19711
						CHANNELS 3 Zrotation Xrotation Yrotation
						JOINT RightArm
						{
							OFFSET 0.00000 18.31580 0.00000
							CHANNELS 3 Zrotation Xrotation Yrotation
							JOINT RightForeArm
							{
								OFFSET 0.00000 28.87420 0.00000
								CHANNELS 3 Zrotation Xrotation Yrotation
								JOINT RightHand
								{
									OFFSET 0.00000 23.87720 0.00000
									CHANNELS 3 Zrotation Xrotation Yrotation
									JOINT RightHandThumb1
									{
										OFFSET -2.41094 4.67063 3.47303
										CHANNELS 3 Zrotation Xrotation Yrotation
										JOINT RightHandThumb2
										{
											OFFSET 0.00000 3.95207 0.00000
											CHANNELS 3 Zrotation Xrotation Yrotation
											JOINT RightHandThumb3
											{
												OFFSET 0.00000 2.15568 0.00000
												CHANNELS 3 Zrotation Xrotation Yrotation
												End site
												{
													OFFSET 0.00000 1.91616 0.00000
												}
											}
										}
									}
									JOINT RightHandIndex1
									{
										OFFSET 0.00000 12.45500 2.51496
										CHANNELS 3 Zrotation Xrotation Yrotation
										JOINT RightHandIndex2
										{
											OFFSET 0.00000 4.79039 0.00000
											CHANNELS 3 Zrotation Xrotation Yrotation
											JOINT RightHandIndex3
											{
												OFFSET 0.00000 2.63472 0.00000
												CHANNELS 3 Zrotation Xrotation Yrotation
												End site
												{
													OFFSET 0.00000 1.91616 0.00000
												}
											}
										}
									}
									JOINT RightHandMiddle1
									{
										OFFSET 0.00000 12.45500 -0.07984
										CHANNELS 3 Zrotation Xrotation Yrotation
										JOINT RightHandMiddle2
										{
											OFFSET 0.00000 5.38919 0.00000
											CHANNELS 3 Zrotation Xrotation Yrotation
											JOINT RightHandMiddle3
											{
												OFFSET 0.00000 3.11376 0.00000
												CHANNELS 3 Zrotation Xrotation Yrotation
												End site
												{
													OFFSET 0.00000 2.03592 0.00000
												}
											}
										}
									}
									JOINT RightHandRing1
									{
										OFFSET 0.00000 11.07780 -2.67464
										CHANNELS 3 Zrotation Xrotation Yrotation
										JOINT RightHandRing2
										{
											OFFSET 0.00000 4.91015 0.00000
											CHANNELS 3 Zrotation Xrotation Yrotation
											JOINT RightHandRing3
											{
												OFFSET 0.00000 3.11376 0.00000
												CHANNELS 3 Zrotation Xrotation Yrotation
												End site
												{
													OFFSET 0.00000 2.03592 0.00000
												}
											}
										}
									}
									JOINT RightHandPinky1
									{
										OFFSET 0.00000 9.70055 -5.26943
										CHANNELS 3 Zrotation Xrotation Yrotation
										JOINT RightHandPinky2
										{
											OFFSET 0.00000 3.95207 0.00000
											CHANNELS 3 Zrotation Xrotation Yrotation
											JOINT RightHandPinky3
											{
												OFFSET 0.00000 2.15568 0.00000
												CHANNELS 3 Zrotation Xrotation Yrotation
												End site
												{
													OFFSET 0.00000 1.91616 0.00000
												}
											}
										}
									}
								}
							}
						}
					}
					JOINT LeftShoulder
					{
						OFFSET 0.00000 7.98668 5.19711
						CHANNELS 3 Zrotation Xrotation Yrotation
						JOINT LeftArm
						{
							OFFSET 0.00000 18.31580 0.00000
							CHANNELS 3 Zrotation Xrotation Yrotation
							JOINT LeftForeArm
							{
								OFFSET 0.00000 28.87420 0.00000
								CHANNELS 3 Zrotation Xrotation Yrotation
								JOINT LeftHand
								{
									OFFSET 0.00000 23.87720 0.00000
									CHANNELS 3 Zrotation Xrotation Yrotation
									JOINT LeftHandThumb1
									{
										OFFSET 2.41094 4.67063 3.47303
										CHANNELS 3 Zrotation Xrotation Yrotation
										JOINT LeftHandThumb2
										{
											OFFSET 0.00000 3.95207 0.00000
											CHANNELS 3 Zrotation Xrotation Yrotation
											JOINT LeftHandThumb3
											{
												OFFSET 0.00000 2.15568 0.00000
												CHANNELS 3 Zrotation Xrotation Yrotation
												End site
												{
													OFFSET 0.00000 1.60000 0.00000
												}
											}
										}
									}
									JOINT LeftHandIndex1
									{
										OFFSET 0.00000 12.45500 2.51496
										CHANNELS 3 Zrotation Xrotation Yrotation
										JOINT LeftHandIndex2
										{
											OFFSET 0.00000 4.79039 0.00000
											CHANNELS 3 Zrotation Xrotation Yrotation
											JOINT LeftHandIndex3
											{
												OFFSET 0.00000 2.63472 0.00000
												CHANNELS 3 Zrotation Xrotation Yrotation
												End site
												{
													OFFSET 0.00000 1.91616 0.00000
												}
											}
										}
									}
									JOINT LeftHandMiddle1
									{
										OFFSET 0.00000 12.45500 -0.07984
										CHANNELS 3 Zrotation Xrotation Yrotation
										JOINT LeftHandMiddle2
										{
											OFFSET 0.00000 5.38919 0.00000
											CHANNELS 3 Zrotation Xrotation Yrotation
											JOINT LeftHandMiddle3
											{
												OFFSET 0.00000 3.11376 0.00000
												CHANNELS 3 Zrotation Xrotation Yrotation
												End site
												{
													OFFSET 0.00000 2.03592 0.00000
												}
											}
										}
									}
									JOINT LeftHandRing1
									{
										OFFSET 0.00000 11.07780 -2.67464
										CHANNELS 3 Zrotation Xrotation Yrotation
										JOINT LeftHandRing2
										{
											OFFSET 0.00000 4.91015 0.00000
											CHANNELS 3 Zrotation Xrotation Yrotation
											JOINT LeftHandRing3
											{
												OFFSET 0.00000 3.11376 0.00000
												CHANNELS 3 Zrotation Xrotation Yrotation
												End site
												{
													OFFSET 0.00000 2.03592 0.00000
												}
											}
										}
									}
									JOINT LeftHandPinky1
									{
										OFFSET 0.00000 9.70055 -5.26943
										CHANNELS 3 Zrotation Xrotation Yrotation
										JOINT LeftHandPinky2
										{
											OFFSET 0.00000 3.95207 0.00000
											CHANNELS 3 Zrotation Xrotation Yrotation
											JOINT LeftHandPinky3
											{
												OFFSET 0.00000 2.15568 0.00000
												CHANNELS 3 Zrotation Xrotation Yrotation
												End site
												{
													OFFSET 0.00000 1.91616 0.00000
												}
											}
										}
									}
								}
							}
						}
					}
				}
			}
		}
	}
	JOINT RightUpLeg
	{
		OFFSET -10.06560 0.00000 0.00000
		CHANNELS 3 Zrotation Xrotation Yrotation
		JOINT RightLeg
		{
			OFFSET 0.00000 -42.98740 0.00000
			CHANNELS 3 Zrotation Xrotation Yrotation
			JOINT RightFoot
			{
				OFFSET 0.00000 -44.62500 0.00000
				CHANNELS 3 Zrotation Xrotation Yrotation
				JOINT RightForeFoot
				{
					OFFSET 0.00000 -3.74821 0.00000
					CHANNELS 3 Zrotation Xrotation Yrotation
					JOINT RightToeBase
					{
						OFFSET 0.00000 0.00000 14.67920
						CHANNELS 3 Zrotation Xrotation Yrotation
						End site
						{
							OFFSET 0.00000 0.00000 10.36040
						}
					}
				}
			}
		}
	}
	JOINT LeftUpLeg
	{
		OFFSET 10.06560 0.00000 0.00000
		CHANNELS 3 Zrotation Xrotation Yrotation
		JOINT LeftLeg
		{
			OFFSET 0.00000 -42.98740 0.00000
			CHANNELS 3 Zrotation Xrotation Yrotation
			JOINT LeftFoot
			{
				OFFSET 0.00000 -44.62500 0.00000
				CHANNELS 3 Zrotation Xrotation Yrotation
				JOINT LeftForeFoot
				{
					OFFSET 0.00000 -3.74821 0.00000
					CHANNELS 3 Zrotation Xrotation Yrotation
					JOINT LeftToeBase
					{
						OFFSET 0.00000 0.00000 14.67920
						CHANNELS 3 Zrotation Xrotation Yrotation
						End site
						{
							OFFSET 0.00000 0.00000 10.67280
						}
					}
				}
			}
		}
	}
}
MOTION
Frames: 4
Frame Time: 0.016667
-7.76454 91.5524 -7.12223 -6.322 0.772306 -170.665 -4.52945 -0.689123 -0.194875 -1.68748 5.79393 0.64251 -1.09304 2.12516 0.413679 4.01883 2.2031 -1.31025 0.318971 8.13124 -1.23995 -1.74141 -4.69193 -7.61608 -0.887399 -19.1881 -0.577712 102.78 -16.0093 3.57954 62.94 8.86392 -37.1576 6.98626e-06 29.0438 -6.40394 -3.76582 -7.81404 1.3083e-06 28.202 26.3695 -13.3968 -8.56211e-15 -19.0861 -6.73113e-15 -3.4029e-15 -15.9051 -6.61433e-15 26.289 -1.19271e-15 -6.36111e-15 31.5468 4.77083e-15 9.54166e-15 26.289 -3.18055e-15 3.18055e-15 34.2603 -3.57812e-15 -9.54166e-15 41.1123 -9.54166e-15 3.18055e-15 34.2603 -6.36111e-15 9.54166e-15 34.564 -4.37326e-15 -1.27222e-14 41.4768 3.18055e-15 -3.18055e-15 34.564 -6.36111e-15 -7.95139e-16 43.3518 -5.56597e-15 -9.54166e-15 52.0221 6.36111e-15 3.18055e-15 43.3518 -3.18055e-15 -1.59028e-15 -101.427 -16.7171 -3.32735 -64.5563 4.399 36.8566 3.00576e-06 38.9804 4.92095 -2.19741 -4.45882 5.2243e-06 -25.3338 17.2171 7.97686 -7.33929e-16 -31.6072 -7.46906e-15 5.96354e-16 -26.3393 -0.0 -17.9389 0.0 -3.18055e-15 -21.5267 -6.36111e-15 -9.54166e-15 -17.9389 -2.38542e-15 3.18055e-15 -24.5249 1.59028e-15 -3.18055e-15 -29.4298 -4.77083e-15 -0.0 -24.5249 0.0 1.27222e-14 -25.5422 1.59028e-15 -3.18055e-15 -30.6507 1.19271e-15 3.18055e-15 -25.5422 0.0 1.27222e-14 -32.5396 0.0 -3.18055e-15 -39.0475 6.36111e-15 -6.36111e-15 -32.5396 -3.18055e-15 3.18055e-15 -7.06464 0.701013 -18.2927 7.45443e-17 12.2905 -0.0 -2.54583 -13.9292 -15.3215 7.95139e-16 7.95139e-16 -3.18055e-15 1.59028e-15 10.7935 -0.0 1.4199 0.13416 26.0419 1.18455e-15 14.5256 6.57115e-15 -4.53265 -3.69771 -3.97374 4.41391e-32 -7.95139e-16 3.18055e-15 -2.21108e-16 -3.17558 3.18545e-15
-30.9204 90.6611 125.969 -6.8741 4.48247 172.125 -7.05307 4.13125 -0.250737 -1.22434 5.54998 0.61732 -1.37424 2.80285 2.89362 2.18079 3.27914 -0.510439 1.14119 7.48273 -1.08913 -0.66024 -3.75224 -9.79176 0.280644 -18.7315 -0.772913 98.2093 -13.7728 1.9673 70.5222 25.9185 -62.1527 179.878 86.3578 -174.818 14.5692 -17.2566 0.00226845 34.6762 37.3167 -22.7529 -4.70242e-16 -2.92387 6.3694e-15 5.24464e-16 -2.43656 -6.36687e-15 27.0581 8.10669e-15 1.58034e-14 32.4701 5.79954e-14 1.98685e-13 27.0581 -1.10325e-14 -1.31695e-14 29.4227 9.05713e-15 1.74931e-14 35.3074 1.58829e-13 4.94775e-13 29.4227 -9.93923e-17 8.44835e-16 25.4432 7.47306e-15 1.55052e-14 30.5318 2.50966e-14 1.07841e-13 25.4432 -8.74653e-15 -1.25234e-14 23.753 7.55382e-15 1.40143e-14 28.5036 2.88735e-14 8.18993e-14 23.753 -1.20265e-14 -9.0447e-15 -98.3681 -16.5008 -2.39246 -66.7748 12.3749 35.4861 0.0504454 51.3793 4.09058 7.45482 -4.28987 -0.00154262 -27.8248 19.0675 9.78405 2.61185e-15 -28.699 5.43899e-15 1.41048e-15 -23.9158 3.47928e-15 9.95302 3.18055e-15 -3.18055e-15 1.59028e-15 -9.54166e-15 -3.18055e-15 -4.41391e-31 3.18055e-15 7.95139e-15 -3.34734 3.18055e-15 -6.36111e-15 -4.0168 3.18055e-15 -3.18055e-15 -3.34734 -9.54166e-15 -3.18055e-15 -12.5244 0.0 -0.0 -15.0293 -1.59028e-15 -0.0 -12.5244 -6.36111e-15 -6.36111e-15 -32.6617 -4.77083e-15 9.54166e-15 -39.194 5.56597e-15 6.36111e-15 -32.6617 3.18055e-15 -3.18055e-15 -17.3685 -10.198 -12.4393 2.38542e-15 28.6848 -0.0 -1.13617 -17.3519 -9.88671 9.93923e-17 1.98785e-16 -3.18055e-15 1.98785e-15 3.63088 -0.0 -7.02205 1.76438 18.1088 -7.45443e-16 15.1351 -0.0 -0.802454 -8.1758 -8.96583 2.11209e-16 0.0 -0.0 -3.9836e-18 -3.95741 -5.97779e-16
-4.97313 90.6202 116.657 -1.98786 5.53428 154.964 -1.52999 3.43342 -0.49895 -1.3883 5.79438 0.374769 -0.0494505 3.12585 -3.03167 4.69152 3.48193 -2.00112 -0.209152 10.4622 -0.162611 -0.419643 -1.72721 -1.63579 -0.405654 -16.3224 -0.131654 102.302 -16.9449 3.63675 57.4334 11.0931 -10.1423 -179.982 79.2264 -110.704 -33.6072 -5.55608 -0.00291449 20.783 47.5063 -15.6317 3.18055e-15 4.77083e-15 3.18055e-15 -4.77083e-15 -1.59028e-15 -0.0 4.54277 9.54166e-15 -1.59028e-15 5.45119 0.0 -9.54166e-15 4.54277 -6.36111e-15 -3.18055e-15 18.8494 3.18055e-15 -1.11319e-14 22.6192 0.0 -1.07344e-14 18.8494 3.18055e-15 -1.11319e-14 25.8586 3.18055e-15 -1.11319e-14 31.0303 -3.18055e-15 -1.66979e-14 25.8586 -9.54166e-15 -1.74931e-14 44.4799 -9.54166e-15 -1.2921e-14 53.3759 -3.18055e-15 -3.18055e-15 44.4799 -2.5842e-15 -9.54166e-15 -96.6542 -15.8607 -1.82619 -68.0572 13.7126 49.0059 -180.0 82.917 -139.074 16.9618 9.6216 0.000290369 -42.6431 34.288 27.421 -7.95139e-16 -2.92181 -0.0 7.27517e-16 -2.43484 -1.59171e-15 9.94021 3.18055e-15 -3.18055e-15 6.36111e-15 3.18055e-15 -0.0 1.59028e-15 0.0 -0.0 -2.33759 0.0 -3.18055e-15 -2.80512 3.18055e-15 -3.18055e-15 -2.33759 0.0 -3.18055e-15 -11.3983 0.0 -6.36111e-15 -13.6779 1.59028e-15 -0.0 -11.3983 3.97569e-15 -0.0 -32.3425 0.0 3.18055e-15 -38.811 0.0 3.18055e-15 -32.3425 0.0 4.77083e-15 -0.913322 0.513202 -5.11208 2.78299e-15 13.1668 -0.0 -3.06096 -14.1237 -4.5763 1.19271e-15 -7.95139e-16 3.18055e-15 1.84576e-15 9.37846 -6.44729e-15 9.53522 -6.02075 20.0666 1.4644e-15 42.543 -8.63377e-15 -3.8916 -5.64808 0.315739 -1.39149e-15 3.18055e-15 -3.97569e-16 -1.31421e-15 -8.68796 -8.04368e-16
-3.85039 90.9639 -22.4838 -3.63623 5.27675 162.917 -2.4191 2.64207 0.19108 -1.43862 5.45754 0.489626 -0.706507 3.24675 -1.67515 4.53523 3.9879 -1.71285 2.08725 9.14785 -4.85998 -1.09043 -2.4199 -11.3405 -0.277001 -17.1514 -0.832627 99.1577 -19.4746 3.07636 49.7702 4.61592 0.0509867 180.0 68.3129 136.427 -38.8696 -4.20831 -1.02299e-05 57.2244 28.4361 143.515 -3.00041e-15 32.0942 3.40234e-15 1.24273e-15 -36.8579 -1.24221e-15 36.537 3.18055e-15 1.74931e-14 43.8445 3.18055e-15 1.59028e-14 36.537 1.59028e-15 -1.59028e-14 43.6389 6.36111e-15 2.3059e-14 52.3666 3.18055e-15 1.11319e-14 43.6389 -1.59028e-15 -0.0 41.2159 6.36111e-15 2.22639e-14 49.4591 6.36111e-15 1.74931e-14 41.2159 -2.38542e-15 -0.0 46.1004 9.54166e-15 2.3059e-14 55.3204 -6.36111e-15 3.18055e-15 46.1004 2.05307e-15 -6.36111e-15 -97.1367 -16.6886 -2.05921 -67.977 5.64996 14.9081 179.941 82.6042 86.2018 -6.0549 0.681653 0.0129386 -42.2205 40.4282 30.443 3.18055e-15 6.36111e-15 -3.18055e-15 -3.18055e-15 0.0 3.18055e-15 -26.5522 0.0 -3.18055e-15 -31.8626 2.38542e-15 -6.36111e-15 -26.5522 1.98785e-15 3.18055e-15 -48.9843 -1.59028e-15 -0.0 -58.7811 -1.43125e-14 6.36111e-15 -48.9843 -3.18055e-15 7.95139e-15 -56.9356 -7.95139e-15 -3.18055e-15 -68.3227 -1.59028e-15 6.36111e-15 -56.9356 -9.54166e-15 1.03368e-14 -81.5326 -3.08116e-15 -3.18055e-15 -97.8391 -2.8625e-14 2.0276e-14 -81.5326 -6.5102e-15 1.59028e-14 1.24941 4.92422 -3.4515 1.2424e-15 10.0531 -0.0 -5.57611 -15.1316 -2.97327 5.96354e-16 3.97569e-16 -0.0 8.51381e-17 9.13115 3.22138e-15 1.44989 -17.2981 6.87333 2.37109e-16 29.8795 -3.66814e-15 0.880065 -1.36414 -1.11159 1.98785e-16 7.95139e-16 -1.59028e-15 -7.95139e-16 -8.39461 -0.0
